<svg width="900" height="900" viewBox="0 0 900 900" fill="none" xmlns="http://www.w3.org/2000/svg">
<circle cx="449.873" cy="449.801" r="449.689" fill="#D9D9D9"/>
<path fill-rule="evenodd" clip-rule="evenodd" d="M899.562 449.801C899.562 698.155 698.227 899.49 449.873 899.49C201.517 899.49 0.184082 698.155 0.184082 449.801C0.184082 201.445 201.517 0.112305 449.873 0.112305C698.227 0.112305 899.562 201.445 899.562 449.801ZM674.718 629.677V539.739H629.749V629.677H269.997V539.739H225.029V629.677C225.029 654.513 245.162 674.646 269.997 674.646H629.749C654.585 674.646 674.718 654.513 674.718 629.677ZM546.399 388.931L472.357 462.973V224.957H427.389V462.973L353.35 388.931L321.552 420.733L449.873 549.052L578.196 420.733L546.399 388.931Z" fill="#323A42"/>
</svg>
