<svg width="902" height="911" viewBox="0 0 902 911" fill="none" xmlns="http://www.w3.org/2000/svg">
<circle cx="450.293" cy="460.872" r="449.689" fill="#D9D9D9"/>
<path fill-rule="evenodd" clip-rule="evenodd" d="M0.604492 457.878C0.604492 684.239 163.276 872.398 376.029 910.561V581.775H263.402V455.337H376.029V354.163C376.029 240.357 448.598 177.157 551.239 177.157C583.751 177.157 618.816 182.202 651.328 187.247V303.595H593.775C538.7 303.595 526.199 331.402 526.199 366.833V455.337H646.334L626.324 581.775H526.199V910.561C738.952 872.398 901.623 684.239 901.623 457.878C901.623 206.101 698.894 0.112305 451.114 0.112305C203.334 0.112305 0.604492 206.101 0.604492 457.878Z" fill="#323A42"/>
</svg>
