<svg width="910" height="904" viewBox="0 0 910 904" fill="none" xmlns="http://www.w3.org/2000/svg">
<ellipse cx="454.721" cy="452.117" rx="454.348" ry="451.475" fill="#323A42"/>
<rect x="169.328" y="176.331" width="561.264" height="539.066" rx="100" fill="#D9D9D9"/>
<path fill-rule="evenodd" clip-rule="evenodd" d="M242.592 118.769C210.443 118.769 179.611 131.54 156.878 154.272C134.145 177.005 121.374 207.837 121.374 239.986V664.248C121.374 696.395 134.145 727.226 156.878 749.961C179.611 772.692 210.443 785.465 242.592 785.465H666.851C699.001 785.465 729.833 772.692 752.567 749.961C775.298 727.226 788.069 696.395 788.069 664.248V239.986C788.069 207.837 775.298 177.005 752.567 154.272C729.833 131.54 699.001 118.769 666.851 118.769H242.592ZM232.47 224.834C229.152 226.067 226.169 228.057 223.756 230.647C221.344 233.236 219.57 236.353 218.575 239.75C217.58 243.146 217.393 246.728 218.027 250.21C218.66 253.691 220.099 256.977 222.227 259.805L392.356 485.573L213.105 677.854L211.772 679.4H273.805L420.174 522.454L532.664 671.794C535.276 675.248 538.818 677.888 542.876 679.4H676.882C680.194 678.161 683.173 676.163 685.579 673.572C687.985 670.978 689.752 667.86 690.74 664.466C691.728 661.069 691.913 657.49 691.273 654.011C690.637 650.532 689.195 647.25 687.064 644.429L516.936 418.661L697.671 224.834H635.547L489.177 381.81L376.628 232.471C374.022 229.003 370.478 226.353 366.415 224.834H232.47ZM562.18 635.398L285.957 268.836H347.142L623.334 635.368L562.18 635.398Z" fill="#323A42"/>
</svg>
