<svg width="21" height="26" viewBox="0 0 21 26" fill="none" xmlns="http://www.w3.org/2000/svg">
<path d="M0.927795 25.2884V3.01097C0.927795 2.27181 1.17543 1.65513 1.6707 1.16093C2.16597 0.666733 2.78264 0.419099 3.52073 0.41803H17.591C18.329 0.41803 18.9457 0.665664 19.441 1.16093C19.9363 1.6562 20.1834 2.27288 20.1823 3.01097V25.2884L10.555 21.1535L0.927795 25.2884ZM2.53234 22.8014L10.555 19.3516L18.5777 22.8014V3.01097C18.5777 2.76387 18.4751 2.53709 18.2697 2.33064C18.0643 2.12419 17.8375 2.0215 17.5893 2.02257H3.52073C3.27363 2.02257 3.04686 2.12526 2.84041 2.33064C2.63396 2.53602 2.53127 2.7628 2.53234 3.01097V22.8014Z" fill="black"/>
</svg>
