<svg width="27" height="27" viewBox="0 0 27 27" fill="none" xmlns="http://www.w3.org/2000/svg">
<path d="M13.2871 25.5661C15.7016 25.5661 18.062 24.8502 20.0696 23.5087C22.0772 22.1672 23.642 20.2606 24.566 18.0298C25.49 15.7991 25.7318 13.3444 25.2607 10.9762C24.7897 8.60807 23.6269 6.43278 21.9196 4.72543C20.2122 3.01808 18.0369 1.85536 15.6688 1.3843C13.3006 0.913246 10.8459 1.15501 8.61519 2.07902C6.38443 3.00303 4.47777 4.56779 3.13631 6.57542C1.79486 8.58305 1.07886 10.9434 1.07886 13.3579C1.07886 15.3113 1.53734 17.156 2.35394 18.7933C2.96842 20.029 2.11384 21.6961 1.78829 22.9129C1.71617 23.182 1.71615 23.4654 1.78825 23.7345C1.86035 24.0036 2.00203 24.249 2.19903 24.446C2.39603 24.643 2.64142 24.7847 2.91054 24.8568C3.17965 24.9289 3.463 24.9288 3.73211 24.8567C4.94886 24.5312 6.61596 23.6766 7.8517 24.2924C9.54079 25.1311 11.4012 25.5671 13.2871 25.5661Z" stroke="black" stroke-width="2.0347" stroke-linecap="round" stroke-linejoin="round"/>
</svg>
