<svg width="177" height="70" viewBox="0 0 177 70" fill="none" xmlns="http://www.w3.org/2000/svg">
<path d="M79.1632 69.885C78.6498 69.6921 78.1692 69.3213 77.9163 68.9229C77.4422 68.1759 77.4759 69.8589 77.4777 47.0543C77.4793 27.0414 77.4844 26.2562 77.6153 25.9714C77.777 25.6195 77.942 25.4618 78.309 25.3086C78.9324 25.0483 79.4353 25.2445 80.1166 26.0139C80.3535 26.2813 80.9078 26.9066 81.3485 27.4034C81.7892 27.9002 82.3169 28.4387 82.5212 28.6001C83.2838 29.2025 83.5167 29.13 84.9992 27.8286C86.8154 26.2344 88.8844 25.3384 91.0189 25.2216C95.0717 24.9999 99.0703 27.6082 101.125 31.814C102.097 33.8048 102.476 35.7548 102.394 38.349C102.331 40.3217 101.983 41.7292 101.121 43.4993C99.8178 46.1737 97.8251 48.1772 95.2001 49.4523C93.8041 50.1304 92.3525 50.545 90.7968 50.7101C89.4326 50.8549 87.1821 50.5544 85.8221 50.0459C84.2552 49.46 83.8298 47.5888 85.0038 46.4463C85.5659 45.8992 86.2524 45.784 87.3556 46.0515C91.2729 47.0014 94.738 45.419 96.5127 41.8699C97.8972 39.1011 97.7306 35.5348 96.1026 33.0899C95.1377 31.641 93.726 30.6414 92.047 30.2181C91.2864 30.0264 89.5341 29.9454 88.7561 30.0661C87.4011 30.2763 85.6866 30.9901 84.8273 31.7017C83.6703 32.6599 82.8816 34.0587 82.5746 35.6968C82.5064 36.0604 82.4739 40.0782 82.4409 52.1893L82.3974 68.2011L82.1923 68.6184C81.9629 69.0852 81.5008 69.5494 81.0171 69.7987C80.5758 70.0262 79.6535 70.0691 79.1632 69.885ZM118.548 50.7071C116.418 50.4471 114.355 49.6549 112.629 48.4334C111.725 47.7937 110.285 46.356 109.65 45.4592C108.725 44.1526 107.997 42.4555 107.665 40.8328C107.448 39.7743 107.392 37.5887 107.55 36.3994C107.775 34.7105 108.223 33.2406 108.941 31.8371C111.196 27.4262 115.389 25.0179 120.467 25.2164C123.905 25.3509 126.665 26.6151 128.189 28.7527C129.072 29.9927 129.584 31.8651 129.473 33.4513C129.322 35.596 128.267 37.4637 126.43 38.8382C125.585 39.4705 124.086 40.1116 122.804 40.3889C121.045 40.7695 119.499 40.7368 117.595 40.2788C115.419 39.7553 114.256 38.7558 114.256 37.4094C114.256 36.5855 114.595 36.0961 115.433 35.7113C116.113 35.3988 116.572 35.4122 118.486 35.8005C119.596 36.0254 120.352 36.1406 120.719 36.1406C122.471 36.1406 123.962 35.3707 124.559 34.1579C124.787 33.6966 124.802 33.6178 124.802 32.8864C124.802 32.1557 124.787 32.076 124.56 31.6168C124.105 30.6931 123.078 29.9464 121.724 29.5547C120.944 29.3291 119.454 29.2746 118.63 29.4415C116.501 29.8724 114.787 31.0836 113.465 33.0897C112.477 34.5892 112.02 36.1871 112.01 38.1744C112.003 39.7839 112.269 40.989 112.924 42.316C114.148 44.7936 116.664 46.4241 119.381 46.5001C120.554 46.5329 122.153 46.2862 123.289 45.8971C123.849 45.7055 124.885 45.1922 125.357 44.8721C125.54 44.7479 125.714 44.6461 125.744 44.646C125.773 44.6458 126.023 44.4841 126.299 44.2866C126.574 44.089 126.938 43.8743 127.107 43.8093C128.132 43.4153 129.107 43.7018 129.562 44.5302C129.654 44.6975 129.686 44.9411 129.686 45.463C129.686 46.1337 129.672 46.1992 129.398 46.7573C129.162 47.2393 128.976 47.4782 128.362 48.0847C126.989 49.4418 125.27 50.1995 122.656 50.5992C121.707 50.7442 119.358 50.806 118.548 50.7071ZM143.969 50.7379C143.483 50.6626 142.614 50.4125 142.198 50.2289C141.16 49.7699 140.347 49.0882 139.698 48.1317C139.224 47.4344 139.025 46.9934 138.795 46.1357L138.61 45.444L138.558 37.6562L138.506 29.8683L137.241 29.8405C136.038 29.8139 135.956 29.8026 135.553 29.6071C134.479 29.0862 134.085 27.8625 134.653 26.8183C134.887 26.39 135.143 26.1666 135.684 25.9202C136.009 25.7725 136.196 25.7504 137.327 25.7257L138.604 25.6979V24.151V22.6041L138.844 22.3486C139.554 21.5947 141.999 19.4161 142.216 19.3445C142.525 19.2426 142.896 19.3097 143.156 19.5145C143.55 19.8236 143.562 19.9272 143.562 22.9304V25.6998L145.506 25.7247L147.451 25.7495L147.944 25.9925C148.727 26.3779 149.114 26.9929 149.111 27.8481C149.108 28.5938 148.695 29.2322 147.965 29.6204L147.595 29.8172L145.587 29.8409L143.578 29.8646L143.528 31.5049C143.5 32.4071 143.488 35.6247 143.501 38.6551L143.525 44.1649L143.718 44.5717C144.004 45.175 144.453 45.6369 145.026 45.9187C145.469 46.1369 145.584 46.1615 146.15 46.1594C146.645 46.1575 146.902 46.1138 147.342 45.956C148.426 45.5674 149.216 45.7362 149.686 46.4567C149.985 46.9163 150.047 47.231 149.939 47.7471C149.775 48.5259 148.913 49.5114 147.943 50.0275C147.05 50.5023 146.216 50.7145 145.116 50.7459C144.607 50.7604 144.091 50.7568 143.969 50.7379ZM163.802 50.7408C161.32 50.494 159.495 50.0411 157.855 49.2648C156.002 48.3876 154.503 46.9809 153.942 45.5925C153.596 44.737 153.598 43.5511 153.946 42.8713C154.408 41.9674 155.725 41.5872 156.78 42.053C157.264 42.2666 157.525 42.5304 158.237 43.5244C159.015 44.6115 159.453 45.0051 160.389 45.4606C162.416 46.4466 166.139 46.7826 168.464 46.1893C170.102 45.7715 171.353 44.7977 171.615 43.7353C171.806 42.964 171.527 42.1012 170.913 41.5609C169.989 40.7477 168.899 40.4048 161.923 38.7328C160.52 38.3964 159.625 38.0888 158.453 37.54C157.407 37.0507 156.782 36.6175 156.136 35.9356C155.174 34.919 154.751 34.0062 154.682 32.7968C154.508 29.7326 156.575 27.0258 159.924 25.9322C162.49 25.0942 166.938 24.9606 169.807 25.6354C172.3 26.2219 174.098 27.3524 175.232 29.0471C175.739 29.8051 175.957 30.3445 176.049 31.0718C176.202 32.2736 175.834 33.3972 175.042 34.1453C174.057 35.076 172.604 35.327 171.213 34.8068C170.415 34.5084 169.728 33.6777 169.636 32.8991C169.565 32.2935 169.711 31.9444 170.252 31.4297C170.807 30.9016 170.814 30.8216 170.337 30.4135C169.761 29.9206 168.265 29.4263 166.74 29.225C164.736 28.9604 162.858 29.1863 161.508 29.8544C160.734 30.2373 160.229 30.6868 159.914 31.2717C159.688 31.6918 159.661 31.8011 159.66 32.3317C159.658 32.8339 159.69 32.9883 159.869 33.3524C160.43 34.4956 161.579 35.0703 164.912 35.8741C170.586 37.2425 171.224 37.4254 172.535 38.0598C175.441 39.4662 176.906 41.6714 176.63 44.2219C176.283 47.4389 172.929 49.8471 167.747 50.6019C167.01 50.7092 164.406 50.8009 163.802 50.7408Z" fill="#323A42"/>
<path d="M32.895 69.6257C32.0474 69.5863 30.1523 69.3729 29.0468 69.1925C20.0001 67.7157 11.6749 62.5706 6.41581 55.2063C3.19532 50.6967 0.965088 44.6362 0.13316 38.1338C-0.0465306 36.7293 -0.0438666 33.2383 0.138153 31.5935C0.363246 29.5596 0.822177 27.1363 1.30161 25.45C3.09501 19.1423 5.88431 14.2626 10.0963 10.0642C13.8137 6.35882 18.3775 3.57868 23.5705 1.85603C27.4903 0.555748 30.8946 -0.000477983 34.9301 3.08177e-07C39.955 0.000690151 44.0979 0.912111 48.5739 3.00184C51.4116 4.32672 53.5034 5.74939 55.5288 7.73199C57.4792 9.6413 58.6054 11.2815 59.0647 12.8817C59.2305 13.4593 59.2527 13.6554 59.2256 14.3053C59.1988 14.9513 59.1592 15.1418 58.949 15.6381C58.2011 17.404 56.3443 18.1328 54.4673 17.397C53.5099 17.0218 52.6582 16.3531 50.7304 14.4632C48.4048 12.1834 47.7004 11.6874 44.6987 10.2153C42.0263 8.90481 39.7943 8.33114 36.577 8.12795C32.3799 7.86288 27.717 8.82393 23.4864 10.826C20.5979 12.1929 17.4552 14.463 15.5479 16.5603C11.5807 20.9228 9.15549 26.4463 8.62488 32.3281C8.51266 33.5721 8.53087 36.4071 8.65885 37.6161C9.21569 42.876 11.2007 47.7039 14.4972 51.8159C15.2013 52.6941 16.783 54.3266 17.6147 55.0335C21.8866 58.6642 27.2889 60.8965 32.821 61.3171C39.508 61.8254 45.6899 59.6331 50.3121 55.1141C51.621 53.8344 52.7599 52.4504 53.3183 51.461C53.6035 50.9557 53.5936 50.676 53.2756 50.2594C53.0382 49.9484 52.7025 49.7627 52.0947 49.6063C51.5205 49.4586 51.4292 49.4564 48.4359 49.5174C46.6583 49.5536 45.7142 49.544 45.3277 49.4856C42.6976 49.0882 40.8719 47.9529 39.6419 45.9501C38.817 44.607 38.404 43.4681 38.3227 42.3124C38.2883 41.8231 38.3048 41.7184 38.4628 41.4249C38.7303 40.9278 39.0863 40.7229 40.0734 40.4981C41.1932 40.2429 41.8933 40.0422 42.2566 39.8719C42.4194 39.7956 42.6402 39.7001 42.7472 39.6597C43.1474 39.5088 44.0477 38.8731 44.4787 38.437C45.34 37.5657 45.7073 36.5207 45.8068 34.6577C45.9293 32.3655 46.1298 31.554 46.836 30.4924C47.4419 29.5816 48.3084 28.9371 49.287 28.6695C49.9232 28.4955 51.4193 28.1425 52.5801 27.8924C53.1296 27.7741 54.5117 27.4747 55.6513 27.2271C58.6571 26.5741 59.2868 26.4724 60.309 26.475C61.2888 26.4774 61.5245 26.5052 62.3857 26.7199C63.4129 26.9759 64.036 27.267 64.8279 27.8606C65.5111 28.3728 65.9464 28.8049 66.5202 29.5404C66.8996 30.0268 67.677 31.2855 67.677 31.4134C67.677 31.4293 67.739 31.5833 67.8149 31.7557C68.0576 32.3077 68.187 32.6509 68.3094 33.0677C68.3752 33.2914 68.4757 33.6076 68.5328 33.7703C68.5899 33.933 68.7426 34.5653 68.8721 35.1755C69.0973 36.2367 69.1075 36.3587 69.1088 37.9858C69.1113 41.3 68.5915 43.3063 67.4393 44.4303C66.8639 44.9916 66.3261 45.2888 65.6049 45.4442C63.766 45.8404 61.9171 44.793 60.9249 42.7931C60.4083 41.7519 60.0233 40.2514 59.9476 38.9843C59.9269 38.6385 59.8911 38.0228 59.868 37.6161C59.745 35.4552 59.2582 33.6323 58.6072 32.8943C58.2724 32.5148 58.2275 32.6455 58.328 33.7061C58.3777 34.2295 58.4386 35.8226 58.4634 37.2463C58.5243 40.737 58.6499 41.4704 59.5042 43.3227C60.1445 44.7111 61.1576 45.803 62.4782 46.5279C63.1738 46.9098 63.1534 46.8535 62.9733 47.8961C62.2318 52.1906 59.7356 57.2458 56.7103 60.5799C55.849 61.5291 54.8014 62.5398 54.0602 63.1367C50.8808 65.697 47.0244 67.494 42.0942 68.7126C39.0939 69.4541 35.938 69.7674 32.895 69.6257ZM50.5462 37.5681C50.9083 37.2504 51.0391 36.9675 51.0503 36.4771C51.0584 36.1291 51.0241 36.009 50.8394 35.737C50.0979 34.6445 48.6567 35.1148 48.6374 36.4556C48.6305 36.9297 48.8172 37.3213 49.1612 37.5545C49.4681 37.7627 49.5559 37.7901 49.9319 37.7957C50.2218 37.8001 50.3257 37.7616 50.5462 37.5681ZM34.1837 33.7968C34.162 33.7619 34.0727 33.7333 33.9851 33.7333C33.8867 33.7333 33.6731 33.5706 33.4268 33.308C32.1997 31.9999 31.6981 31.4492 31.5119 31.2057C31.3975 31.0562 30.9924 30.5589 30.6116 30.1005C30.2308 29.6421 29.8996 29.2153 29.8757 29.152C29.8518 29.0888 29.6773 28.8373 29.488 28.5932C28.758 27.6524 28.2363 26.7952 27.5299 25.3761C26.7246 23.7582 26.5699 23.157 26.5686 21.6412C26.5679 20.9229 26.6028 20.4146 26.6673 20.1991C27.0635 18.8756 27.3555 18.2296 27.8989 17.4736C28.0418 17.2748 28.1588 17.0818 28.1588 17.0447C28.1588 16.9538 28.8834 16.2555 29.5648 15.6897C30.1211 15.2279 31.6156 14.4304 31.9248 14.4304C32.0059 14.4304 32.0907 14.4006 32.1132 14.3641C32.1509 14.3031 32.7003 14.2093 33.8201 14.0727C34.3891 14.0033 36.0214 14.204 36.6515 14.4209C37.2891 14.6404 38.3011 15.1282 38.5218 15.3225C38.6222 15.4109 38.8209 15.5587 38.9634 15.651C39.4347 15.9562 40.1934 16.7778 40.6834 17.5137C41.7394 19.0998 42.1141 20.5833 41.9294 22.4473C41.8171 23.58 41.4875 24.5539 40.763 25.8933C40.5761 26.2388 40.3125 26.7299 40.1773 26.9846C40.0421 27.2393 39.6887 27.7867 39.3919 28.201C39.0952 28.6154 38.6842 29.1955 38.4787 29.4902C37.4898 30.9084 34.9531 33.6334 34.4869 33.7784C34.3418 33.8235 34.2053 33.8318 34.1837 33.7968ZM35.2814 24.997C36.3354 24.6389 37.0023 24.0231 37.5126 22.9368C37.7236 22.4876 37.7392 22.3969 37.7407 21.6042C37.743 20.7549 37.743 20.7529 37.434 20.1251C36.8789 18.993 36.085 18.3739 34.8197 18.0863C34.3395 17.9772 34.2008 17.9729 33.7836 18.0542C32.6341 18.2783 31.9138 18.7287 31.3444 19.5795C30.8686 20.2904 30.7114 20.8046 30.714 21.6412C30.7168 22.4794 30.9176 23.0477 31.4851 23.8219C32.2862 24.915 33.9797 25.4392 35.2814 24.997Z" fill="#323A42"/>
</svg>
