<svg width="155" height="155" viewBox="0 0 155 155" fill="none" xmlns="http://www.w3.org/2000/svg">
<path d="M30.0938 116.812C36.6459 111.802 43.9688 107.852 52.0626 104.961C60.1563 102.07 68.6355 100.625 77.5001 100.625C86.3647 100.625 94.8438 102.07 102.938 104.961C111.031 107.852 118.354 111.802 124.906 116.812C129.403 111.545 132.904 105.571 135.409 98.8906C137.914 92.21 139.167 85.0798 139.167 77.5C139.167 60.4132 133.161 45.8637 121.149 33.8515C109.136 21.8394 94.5869 15.8333 77.5001 15.8333C60.4133 15.8333 45.8638 21.8394 33.8516 33.8515C21.8395 45.8637 15.8334 60.4132 15.8334 77.5C15.8334 85.0798 17.086 92.21 19.5912 98.8906C22.0964 105.571 25.5973 111.545 30.0938 116.812ZM77.5001 85.2083C69.9202 85.2083 63.5287 82.6067 58.3256 77.4036C53.1225 72.2005 50.5209 65.809 50.5209 58.2291C50.5209 50.6493 53.1225 44.2578 58.3256 39.0546C63.5287 33.8515 69.9202 31.25 77.5001 31.25C85.0799 31.25 91.4714 33.8515 96.6746 39.0546C101.878 44.2578 104.479 50.6493 104.479 58.2291C104.479 65.809 101.878 72.2005 96.6746 77.4036C91.4714 82.6067 85.0799 85.2083 77.5001 85.2083ZM77.5001 154.583C66.8369 154.583 56.8161 152.56 47.4376 148.513C38.0591 144.466 29.9011 138.974 22.9636 132.036C16.0261 125.099 10.5339 116.941 6.48706 107.562C2.44019 98.184 0.416748 88.1632 0.416748 77.5C0.416748 66.8368 2.44019 56.8159 6.48706 47.4375C10.5339 38.059 16.0261 29.901 22.9636 22.9635C29.9011 16.026 38.0591 10.5338 47.4376 6.48694C56.8161 2.44006 66.8369 0.416626 77.5001 0.416626C88.1633 0.416626 98.1841 2.44006 107.563 6.48694C116.941 10.5338 125.099 16.026 132.037 22.9635C138.974 29.901 144.466 38.059 148.513 47.4375C152.56 56.8159 154.583 66.8368 154.583 77.5C154.583 88.1632 152.56 98.184 148.513 107.562C144.466 116.941 138.974 125.099 132.037 132.036C125.099 138.974 116.941 144.466 107.563 148.513C98.1841 152.56 88.1633 154.583 77.5001 154.583Z" fill="#323A42"/>
</svg>
