<svg width="29" height="30" viewBox="0 0 29 30" fill="none" xmlns="http://www.w3.org/2000/svg">
<path d="M19.0312 15.2251C17.8667 15.2251 16.7406 14.7051 15.8593 13.7615C15.0023 12.8411 14.479 11.6137 14.3867 10.3064C14.2881 8.91193 14.7135 7.62959 15.584 6.69502C16.4546 5.76045 17.6718 5.25635 19.0312 5.25635C20.3809 5.25635 21.6015 5.76951 22.4693 6.70182C23.3455 7.64318 23.772 8.92326 23.6735 10.3059C23.5789 11.6148 23.0561 12.8417 22.2008 13.7609C21.3217 14.7051 20.1963 15.2251 19.0312 15.2251ZM26.4981 25.1938H11.5648C11.3247 25.1951 11.0875 25.1413 10.8715 25.0365C10.6555 24.9318 10.4664 24.7788 10.3187 24.5895C10.1621 24.3842 10.054 24.1462 10.0024 23.8933C9.95078 23.6403 9.95707 23.3789 10.0208 23.1287C10.4977 21.2137 11.6792 19.6255 13.4374 18.5363C14.9978 17.57 16.9842 17.0376 19.0312 17.0376C21.1184 17.0376 23.0527 17.5474 24.6222 18.5131C26.3843 19.5966 27.5675 21.1939 28.0421 23.1321C28.1051 23.3825 28.1107 23.6439 28.0585 23.8967C28.0063 24.1495 27.8977 24.3873 27.7408 24.5923C27.5933 24.7808 27.4046 24.933 27.1892 25.0372C26.9738 25.1415 26.7374 25.1951 26.4981 25.1938ZM8.32611 15.4517C6.33292 15.4517 4.58046 13.5984 4.4179 11.3209C4.33747 10.1541 4.70111 9.07506 5.43744 8.28379C6.16583 7.50045 7.19329 7.06885 8.32611 7.06885C9.45892 7.06885 10.4785 7.50272 11.2108 8.29059C11.9528 9.08809 12.3153 10.1648 12.2303 11.322C12.0678 13.5989 10.3159 15.4517 8.32611 15.4517ZM12.0451 17.233C11.0488 16.7459 9.75572 16.5023 8.32667 16.5023C6.65804 16.5023 5.03755 16.9373 3.76314 17.7269C2.31824 18.6235 1.34628 19.9291 0.953764 21.5054C0.896322 21.7321 0.890889 21.9689 0.937871 22.198C0.984854 22.4272 1.08304 22.6427 1.22507 22.8285C1.35985 23.0016 1.53251 23.1414 1.72978 23.2372C1.92705 23.333 2.14367 23.3823 2.36298 23.3813H8.65009C8.75621 23.3813 8.85895 23.3441 8.94041 23.2761C9.02187 23.2081 9.07688 23.1136 9.09585 23.0092C9.10208 22.9735 9.11001 22.9379 9.11908 22.9027C9.59939 20.9736 10.7248 19.3434 12.3878 18.1551C12.449 18.111 12.4982 18.0524 12.5309 17.9845C12.5637 17.9166 12.579 17.8416 12.5755 17.7662C12.5719 17.6909 12.5496 17.6177 12.5106 17.5532C12.4716 17.4886 12.4172 17.4349 12.3521 17.3967C12.2632 17.3446 12.1612 17.2896 12.0451 17.233Z" fill="#323A42"/>
</svg>
