<svg width="20" height="20" viewBox="0 0 20 20" fill="none" xmlns="http://www.w3.org/2000/svg">
<path d="M20 16.605C20 16.8039 19.921 16.9947 19.7803 17.1353C19.6397 17.276 19.4489 17.355 19.25 17.355H14.15C13.983 17.9779 13.6151 18.5282 13.1034 18.9208C12.5918 19.3133 11.9649 19.526 11.32 19.526C10.6751 19.526 10.0482 19.3133 9.53658 18.9208C9.02491 18.5282 8.65704 17.9779 8.49 17.355H0.75C0.551088 17.355 0.360322 17.276 0.21967 17.1353C0.0790175 16.9947 0 16.8039 0 16.605C0 16.4061 0.0790175 16.2153 0.21967 16.0747C0.360322 15.934 0.551088 15.855 0.75 15.855H8.49C8.65704 15.2321 9.02491 14.6817 9.53658 14.2892C10.0482 13.8967 10.6751 13.6839 11.32 13.6839C11.9649 13.6839 12.5918 13.8967 13.1034 14.2892C13.6151 14.6817 13.983 15.2321 14.15 15.855H19.25C19.4489 15.855 19.6397 15.934 19.7803 16.0747C19.921 16.2153 20 16.4061 20 16.605ZM20 3.39499C20 3.5939 19.921 3.78467 19.7803 3.92532C19.6397 4.06597 19.4489 4.14499 19.25 4.14499H16.8C16.633 4.76787 16.2651 5.31823 15.7534 5.71076C15.2418 6.10329 14.6149 6.31604 13.97 6.31604C13.3251 6.31604 12.6982 6.10329 12.1866 5.71076C11.6749 5.31823 11.307 4.76787 11.14 4.14499H0.75C0.651509 4.14499 0.553982 4.12559 0.462987 4.0879C0.371993 4.05021 0.289314 3.99497 0.21967 3.92532C0.150026 3.85568 0.0947813 3.773 0.0570903 3.682C0.0193993 3.59101 0 3.49348 0 3.39499C0 3.2965 0.0193993 3.19897 0.0570903 3.10798C0.0947813 3.01698 0.150026 2.93431 0.21967 2.86466C0.289314 2.79502 0.371993 2.73977 0.462987 2.70208C0.553982 2.66439 0.651509 2.64499 0.75 2.64499H11.14C11.307 2.02212 11.6749 1.47175 12.1866 1.07922C12.6982 0.686695 13.3251 0.473938 13.97 0.473938C14.6149 0.473938 15.2418 0.686695 15.7534 1.07922C16.2651 1.47175 16.633 2.02212 16.8 2.64499H19.25C19.3489 2.64365 19.447 2.66213 19.5386 2.69934C19.6302 2.73656 19.7134 2.79175 19.7833 2.86166C19.8532 2.93158 19.9084 3.01479 19.9457 3.10639C19.9829 3.198 20.0013 3.29613 20 3.39499ZM20 9.99499C20.0013 10.0939 19.9829 10.192 19.9457 10.2836C19.9084 10.3752 19.8532 10.4584 19.7833 10.5283C19.7134 10.5982 19.6302 10.6534 19.5386 10.6906C19.447 10.7279 19.3489 10.7463 19.25 10.745H7.55C7.38296 11.3679 7.01509 11.9182 6.50342 12.3108C5.99176 12.7033 5.36489 12.916 4.72 12.916C4.07511 12.916 3.44824 12.7033 2.93658 12.3108C2.42491 11.9182 2.05704 11.3679 1.89 10.745H0.75C0.551088 10.745 0.360322 10.666 0.21967 10.5253C0.0790175 10.3847 0 10.1939 0 9.99499C0 9.79608 0.0790175 9.60531 0.21967 9.46466C0.360322 9.32401 0.551088 9.24499 0.75 9.24499H1.89C2.05704 8.62212 2.42491 8.07175 2.93658 7.67922C3.44824 7.28669 4.07511 7.07394 4.72 7.07394C5.36489 7.07394 5.99176 7.28669 6.50342 7.67922C7.01509 8.07175 7.38296 8.62212 7.55 9.24499H19.25C19.4489 9.24499 19.6397 9.32401 19.7803 9.46466C19.921 9.60531 20 9.79608 20 9.99499Z" fill="#323A42"/>
</svg>
