<svg width="119" height="48" viewBox="0 0 119 48" fill="none" xmlns="http://www.w3.org/2000/svg">
<path d="M53.3241 47.0744C52.9783 46.9445 52.6545 46.6947 52.4842 46.4263C52.1648 45.9231 52.1875 47.0568 52.1887 31.6957C52.1898 18.215 52.1932 17.6861 52.2814 17.4943C52.3903 17.2572 52.5015 17.151 52.7487 17.0478C53.1686 16.8725 53.5073 17.0046 53.9663 17.5229C54.1258 17.7031 54.4993 18.1242 54.7961 18.4589C55.093 18.7935 55.4484 19.1562 55.586 19.2649C56.0997 19.6707 56.2566 19.6219 57.2552 18.7453C58.4786 17.6715 59.8723 17.0679 61.31 16.9892C64.04 16.8399 66.7334 18.5969 68.1174 21.4299C68.7725 22.7709 69.0275 24.0843 68.972 25.8318C68.9298 27.1606 68.6955 28.1087 68.1146 29.3011C67.2369 31.1025 65.8947 32.452 64.1265 33.311C63.1861 33.7677 62.2084 34.047 61.1605 34.1582C60.2415 34.2557 58.7256 34.0533 57.8095 33.7108C56.754 33.3162 56.4675 32.0557 57.2583 31.2861C57.6369 30.9176 58.0993 30.84 58.8425 31.0202C61.4812 31.66 63.8152 30.5942 65.0107 28.2035C65.9433 26.3384 65.8311 23.9361 64.7344 22.2893C64.0845 21.3133 63.1336 20.64 62.0026 20.3549C61.4902 20.2257 60.3099 20.1712 59.7858 20.2525C58.8731 20.3941 57.7182 20.8748 57.1394 21.3542C56.3601 21.9997 55.8288 22.9419 55.622 24.0453C55.5761 24.2902 55.5541 26.9966 55.5319 35.1546L55.5026 45.9401L55.3645 46.2212C55.21 46.5357 54.8987 46.8483 54.5729 47.0163C54.2756 47.1695 53.6543 47.1984 53.3241 47.0744ZM79.8539 34.1562C78.4185 33.981 77.0294 33.4474 75.8668 32.6247C75.2579 32.1938 74.2879 31.2253 73.8601 30.6212C73.237 29.7411 72.7463 28.5979 72.5226 27.5049C72.3767 26.7919 72.3387 25.3197 72.4454 24.5186C72.597 23.3809 72.8988 22.3908 73.3821 21.4454C74.901 18.4742 77.7254 16.852 81.1464 16.9857C83.462 17.0763 85.3215 17.9279 86.3475 19.3677C86.9427 20.203 87.2874 21.4643 87.2124 22.5327C87.111 23.9774 86.4004 25.2354 85.1628 26.1613C84.5935 26.5873 83.5837 27.0191 82.7202 27.2059C81.5353 27.4623 80.4944 27.4403 79.2118 27.1317C77.7461 26.7791 76.9626 26.1058 76.9626 25.1989C76.9626 24.6439 77.1911 24.3143 77.7555 24.055C78.2136 23.8446 78.5224 23.8536 79.8122 24.1151C80.5592 24.2666 81.0685 24.3442 81.3157 24.3442C82.4959 24.3442 83.5005 23.8256 83.9029 23.0087C84.056 22.6979 84.0661 22.6448 84.0661 22.1522C84.0661 21.66 84.0559 21.6063 83.9035 21.297C83.597 20.6748 82.9052 20.1718 81.9929 19.908C81.4674 19.756 80.4637 19.7193 79.9085 19.8317C78.475 20.122 77.3201 20.9379 76.4296 22.2891C75.764 23.2992 75.4561 24.3756 75.4499 25.7142C75.4448 26.7984 75.6239 27.6101 76.0654 28.504C76.8898 30.1729 78.5847 31.2712 80.4146 31.3224C81.2046 31.3445 82.2818 31.1783 83.0474 30.9162C83.4246 30.7871 84.1219 30.4414 84.44 30.2257C84.5634 30.1421 84.6807 30.0736 84.7006 30.0734C84.7206 30.0733 84.8889 29.9644 85.0745 29.8313C85.2602 29.6983 85.5052 29.5536 85.619 29.5099C86.3094 29.2445 86.9664 29.4374 87.2725 29.9955C87.3343 30.1081 87.3562 30.2722 87.3562 30.6238C87.3562 31.0756 87.3464 31.1197 87.1623 31.4956C87.0034 31.8203 86.8778 31.9812 86.4645 32.3897C85.5395 33.3039 84.3812 33.8143 82.6205 34.0835C81.9816 34.1812 80.3994 34.2228 79.8539 34.1562ZM96.977 34.1769C96.65 34.1262 96.0642 33.9578 95.7844 33.8341C95.0852 33.5249 94.5377 33.0657 94.1 32.4214C93.7809 31.9517 93.6466 31.6547 93.4921 31.0769L93.3674 30.611L93.3323 25.3651L93.2971 20.1193L92.4452 20.1005C91.6347 20.0826 91.5795 20.075 91.308 19.9433C90.585 19.5924 90.3191 18.7681 90.7022 18.0647C90.8593 17.7762 91.032 17.6258 91.3967 17.4598C91.6151 17.3603 91.7412 17.3454 92.5031 17.3288L93.363 17.3101V16.2681V15.2261L93.525 15.054C94.003 14.5461 95.6502 13.0786 95.7964 13.0304C96.0044 12.9618 96.2542 13.007 96.4297 13.1449C96.6946 13.3531 96.7029 13.4229 96.7029 15.4459V17.3114L98.0126 17.3281L99.3224 17.3448L99.6548 17.5085C100.182 17.7681 100.443 18.1824 100.44 18.7584C100.438 19.2607 100.161 19.6908 99.6689 19.9522L99.4196 20.0848L98.0667 20.1008L96.7137 20.1167L96.6799 21.2217C96.6613 21.8294 96.6533 23.9967 96.662 26.038L96.6779 29.7494L96.808 30.0234C97.001 30.4298 97.3031 30.7409 97.689 30.9308C97.9876 31.0777 98.0653 31.0943 98.4465 31.0929C98.78 31.0916 98.9525 31.0621 99.2489 30.9559C99.979 30.6941 100.511 30.8078 100.828 31.2931C101.03 31.6027 101.071 31.8147 100.998 32.1623C100.888 32.6869 100.307 33.3508 99.6538 33.6984C99.0528 34.0183 98.4905 34.1612 97.7497 34.1823C97.407 34.1921 97.0593 34.1897 96.977 34.1769ZM110.337 34.1789C108.664 34.0126 107.435 33.7076 106.331 33.1846C105.083 32.5938 104.073 31.6462 103.695 30.711C103.462 30.1348 103.463 29.3359 103.697 28.8781C104.009 28.2691 104.896 28.0131 105.607 28.3268C105.933 28.4707 106.109 28.6484 106.588 29.318C107.112 30.0502 107.407 30.3154 108.038 30.6222C109.403 31.2864 111.91 31.5126 113.477 31.113C114.58 30.8316 115.423 30.1756 115.6 29.46C115.728 28.9405 115.54 28.3593 115.127 27.9953C114.504 27.4475 113.77 27.2166 109.071 26.0903C108.126 25.8638 107.523 25.6565 106.733 25.2869C106.029 24.9573 105.608 24.6655 105.173 24.2061C104.525 23.5214 104.24 22.9065 104.193 22.0918C104.076 20.0278 105.468 18.2045 107.724 17.4679C109.453 16.9034 112.449 16.8134 114.381 17.268C116.061 17.663 117.272 18.4245 118.036 19.5661C118.378 20.0766 118.524 20.44 118.586 20.9299C118.689 21.7394 118.441 22.4963 117.908 23.0002C117.245 23.6271 116.266 23.7962 115.328 23.4458C114.791 23.2448 114.328 22.6852 114.267 22.1608C114.218 21.7528 114.317 21.5177 114.681 21.171C115.055 20.8152 115.06 20.7614 114.738 20.4865C114.35 20.1544 113.343 19.8215 112.316 19.6859C110.966 19.5077 109.701 19.6598 108.791 20.1099C108.27 20.3678 107.93 20.6706 107.718 21.0645C107.565 21.3475 107.548 21.4211 107.547 21.7786C107.545 22.1169 107.567 22.2208 107.687 22.4661C108.065 23.2362 108.839 23.6233 111.084 24.1647C114.906 25.0864 115.336 25.2097 116.219 25.637C118.176 26.5843 119.164 28.0698 118.978 29.7878C118.744 31.9548 116.485 33.5769 112.994 34.0853C112.497 34.1576 110.744 34.2193 110.337 34.1789Z" fill="#323A42"/>
<path d="M22.158 46.8997C21.587 46.8732 20.3105 46.7294 19.5659 46.6079C13.472 45.6131 7.8642 42.1474 4.32167 37.1869C2.15236 34.1492 0.650082 30.0669 0.0896965 25.6868C-0.0313429 24.7407 -0.0295485 22.3892 0.0930595 21.2813C0.244682 19.9113 0.553817 18.279 0.876765 17.1431C2.08479 12.8942 3.96366 9.60728 6.80084 6.77925C9.30489 4.28329 12.379 2.41059 15.877 1.25022C18.5174 0.37435 20.8105 -0.000321968 23.5289 2.07588e-07C26.9136 0.000464884 29.7043 0.614396 32.7193 2.02203C34.6308 2.91447 36.0398 3.87277 37.4041 5.20825C38.7179 6.49436 39.4765 7.59918 39.7859 8.67707C39.8975 9.06613 39.9125 9.19824 39.8943 9.63601C39.8762 10.0711 39.8495 10.1995 39.7079 10.5338C39.2041 11.7233 37.9534 12.2142 36.689 11.7186C36.0442 11.4658 35.4704 11.0154 34.1719 9.74238C32.6054 8.20674 32.1309 7.87258 30.109 6.88102C28.3089 5.99826 26.8054 5.61184 24.6382 5.47497C21.811 5.29642 18.6701 5.94378 15.8204 7.29238C13.8747 8.21313 11.7578 9.74225 10.473 11.155C7.8007 14.0936 6.16712 17.8142 5.8097 21.7761C5.73411 22.6141 5.74637 24.5238 5.83258 25.3381C6.20767 28.8812 7.54477 32.1332 9.76531 34.9031C10.2395 35.4946 11.305 36.5943 11.8653 37.0705C14.7428 39.5161 18.3817 41.0198 22.1082 41.3031C26.6125 41.6455 30.7766 40.1687 33.8901 37.1247C34.7718 36.2628 35.539 35.3305 35.9151 34.664C36.1072 34.3237 36.1005 34.1353 35.8863 33.8546C35.7264 33.6451 35.5003 33.5201 35.0909 33.4147C34.7041 33.3152 34.6426 33.3137 32.6263 33.3548C31.4289 33.3792 30.793 33.3727 30.5327 33.3334C28.761 33.0657 27.5312 32.301 26.7027 30.9519C26.1471 30.0471 25.8689 29.28 25.8141 28.5015C25.7909 28.172 25.802 28.1014 25.9085 27.9037C26.0886 27.5689 26.3284 27.4309 26.9934 27.2794C27.7477 27.1076 28.2192 26.9723 28.4639 26.8576C28.5736 26.8062 28.7223 26.7419 28.7944 26.7147C29.064 26.6131 29.6704 26.1848 29.9608 25.8911C30.5409 25.3042 30.7883 24.6003 30.8554 23.3454C30.9379 21.8013 31.073 21.2547 31.5486 20.5396C31.9567 19.9261 32.5404 19.492 33.1996 19.3117C33.6282 19.1945 34.636 18.9567 35.4179 18.7883C35.788 18.7086 36.7189 18.5069 37.4866 18.3401C39.5113 17.9003 39.9355 17.8318 40.624 17.8335C41.284 17.8351 41.4427 17.8538 42.0229 17.9984C42.7148 18.1709 43.1345 18.367 43.6679 18.7668C44.1281 19.1119 44.4214 19.4029 44.8079 19.8984C45.0634 20.226 45.5871 21.0738 45.5871 21.16C45.5871 21.1707 45.6289 21.2744 45.68 21.3906C45.8435 21.7624 45.9306 21.9936 46.0131 22.2743C46.0574 22.425 46.1251 22.638 46.1636 22.7476C46.202 22.8572 46.3049 23.2831 46.3921 23.6941C46.5438 24.4089 46.5507 24.4911 46.5515 25.5872C46.5532 27.8196 46.2031 29.171 45.427 29.9282C45.0394 30.3062 44.6772 30.5064 44.1913 30.6111C42.9527 30.878 41.7072 30.1725 41.0389 28.8253C40.6909 28.124 40.4316 27.1133 40.3806 26.2597C40.3666 26.0268 40.3425 25.6121 40.3269 25.3381C40.2441 23.8825 39.9162 22.6546 39.4777 22.1575C39.2522 21.9019 39.2219 21.9899 39.2897 22.7043C39.3231 23.0569 39.3641 24.13 39.3808 25.089C39.4218 27.4403 39.5065 27.9344 40.0819 29.1821C40.5132 30.1173 41.1957 30.8528 42.0852 31.3411C42.5537 31.5983 42.54 31.5604 42.4187 32.2627C41.9192 35.1555 40.2378 38.5607 38.1999 40.8065C37.6198 41.4459 36.9141 42.1267 36.4149 42.5287C34.2732 44.2534 31.6756 45.4638 28.3545 46.2846C26.3335 46.7842 24.2077 46.9952 22.158 46.8997ZM34.0478 25.3058C34.2918 25.0918 34.3798 24.9012 34.3874 24.5709C34.3928 24.3365 34.3697 24.2556 34.2453 24.0724C33.7458 23.3365 32.7751 23.6533 32.7621 24.5564C32.7574 24.8757 32.8832 25.1395 33.1149 25.2966C33.3216 25.4369 33.3807 25.4554 33.634 25.4591C33.8293 25.462 33.8993 25.4361 34.0478 25.3058ZM23.0261 22.7655C23.0115 22.7419 22.9513 22.7227 22.8923 22.7227C22.826 22.7227 22.6821 22.6131 22.5162 22.4362C21.6896 21.555 21.3518 21.1841 21.2263 21.0201C21.1493 20.9194 20.8764 20.5844 20.6199 20.2756C20.3634 19.9669 20.1403 19.6794 20.1242 19.6367C20.1081 19.5941 19.9906 19.4247 19.863 19.2603C19.3713 18.6266 19.0199 18.0492 18.5441 17.0933C18.0016 16.0035 17.8974 15.5985 17.8965 14.5775C17.8961 14.0936 17.9196 13.7512 17.963 13.606C18.2299 12.7146 18.4266 12.2794 18.7927 11.7702C18.8889 11.6363 18.9677 11.5063 18.9677 11.4813C18.9677 11.4201 19.4558 10.9497 19.9148 10.5686C20.2895 10.2575 21.2962 9.72027 21.5045 9.72027C21.5591 9.72027 21.6162 9.70019 21.6314 9.67565C21.6568 9.63454 22.0268 9.57137 22.7811 9.47937C23.1645 9.43262 24.2639 9.56781 24.6884 9.7139C25.1179 9.86172 25.7996 10.1903 25.9482 10.3212C26.0158 10.3808 26.1497 10.4803 26.2456 10.5425C26.5632 10.7481 27.0742 11.3015 27.4042 11.7972C28.1156 12.8656 28.368 13.8648 28.2435 15.1204C28.1679 15.8834 27.9459 16.5395 27.4579 17.4417C27.332 17.6744 27.1544 18.0052 27.0634 18.1768C26.9723 18.3484 26.7342 18.7171 26.5343 18.9962C26.3344 19.2752 26.0576 19.666 25.9192 19.8646C25.253 20.8198 23.5443 22.6554 23.2303 22.753C23.1325 22.7834 23.0406 22.789 23.0261 22.7655ZM23.7655 16.8379C24.4754 16.5967 24.9247 16.1819 25.2684 15.4502C25.4106 15.1476 25.421 15.0865 25.422 14.5526C25.4236 13.9804 25.4236 13.9791 25.2155 13.5562C24.8415 12.7937 24.3068 12.3766 23.4545 12.1829C23.131 12.1094 23.0376 12.1065 22.7566 12.1613C21.9823 12.3122 21.4971 12.6156 21.1135 13.1887C20.793 13.6676 20.6871 14.0139 20.6889 14.5775C20.6908 15.142 20.8261 15.5249 21.2083 16.0464C21.7479 16.7827 22.8887 17.1358 23.7655 16.8379Z" fill="#323A42"/>
</svg>
