<svg width="49" height="56" viewBox="0 0 49 56" fill="none" xmlns="http://www.w3.org/2000/svg">
<path d="M24 0C6 0.00038225 0.336887 14.032 0 20.8004C0 27.2381 2.27651 32.1906 6 37.1431C9.03199 41.1758 20.4377 53.7218 22.2186 55.4672C22.7239 55.9624 24.1388 56.5567 25.7559 54.9719L42.4318 37.1431C48.4958 29.7144 48.4958 24.432 48.4958 20.8004C48.6642 13.7018 42.6006 -0.000394987 24 0Z" fill="#FBB51B"/>
<ellipse cx="24" cy="22.0357" rx="20.5" ry="19.0357" fill="white"/>
<path d="M16.9375 17.5C18.1456 17.5 19.125 16.5206 19.125 15.3125C19.125 14.1044 18.1456 13.125 16.9375 13.125C15.7294 13.125 14.75 14.1044 14.75 15.3125C14.75 16.5206 15.7294 17.5 16.9375 17.5Z" fill="#FBB51B"/>
<path d="M20.875 14C22.0831 14 23.0625 13.0206 23.0625 11.8125C23.0625 10.6044 22.0831 9.625 20.875 9.625C19.6669 9.625 18.6875 10.6044 18.6875 11.8125C18.6875 13.0206 19.6669 14 20.875 14Z" fill="#FBB51B"/>
<path d="M26.125 14C27.3331 14 28.3125 13.0206 28.3125 11.8125C28.3125 10.6044 27.3331 9.625 26.125 9.625C24.9169 9.625 23.9375 10.6044 23.9375 11.8125C23.9375 13.0206 24.9169 14 26.125 14Z" fill="#FBB51B"/>
<path d="M30.0625 17.5C31.2706 17.5 32.25 16.5206 32.25 15.3125C32.25 14.1044 31.2706 13.125 30.0625 13.125C28.8544 13.125 27.875 14.1044 27.875 15.3125C27.875 16.5206 28.8544 17.5 30.0625 17.5Z" fill="#FBB51B"/>
<path fill-rule="evenodd" clip-rule="evenodd" d="M19.7189 16.6065C20.2106 16.1147 20.8618 15.8148 21.555 15.7608C22.2483 15.7068 22.938 15.9022 23.4999 16.3119C24.0936 15.8824 24.8271 15.692 25.5547 15.7785C26.2823 15.865 26.9508 16.2222 27.4271 16.7789C27.9035 17.3357 28.1529 18.0513 28.1258 18.7836C28.0987 19.5158 27.7971 20.2111 27.2809 20.7311L24.531 23.481C24.2575 23.7544 23.8866 23.908 23.4999 23.908C23.1132 23.908 22.7424 23.7544 22.4689 23.481L19.7189 20.7316C19.172 20.1846 18.8647 19.4428 18.8647 18.6693C18.8647 17.8958 19.172 17.1534 19.7189 16.6065Z" fill="#FBB51B"/>
<path d="M37.763 18.8821C37.1404 18.7519 36.5322 19.1499 36.4021 19.7725L35.311 24.9928L31.3596 28.1248C31.0956 28.3339 30.705 28.2706 30.5213 27.99L30.1651 27.4456C30.0093 27.2074 30.0501 26.8892 30.266 26.6993L31.9798 25.1924C32.4563 24.7744 32.5021 24.046 32.084 23.5694C31.6659 23.0929 30.9375 23.0471 30.461 23.4652L27.8701 25.7434C27.123 26.4023 26.6086 27.2824 26.405 28.2568L25.5816 32.1967C25.5169 32.5062 25.5962 34.4901 26.3557 35.0915C27.1152 35.6928 28.3134 35.5006 29.4969 34.7263C30.2476 34.2352 31.1963 33.3881 31.8085 32.8629L36.4579 28.9039C36.7596 28.6549 36.9676 28.3092 37.0478 27.9258L38.6534 20.243C38.7835 19.6204 38.3856 19.0122 37.763 18.8821Z" fill="#FBB51B"/>
<path d="M9.1241 18.9425C9.74585 18.8082 10.3567 19.202 10.491 19.8237L11.617 25.0366L15.5894 28.142C15.8548 28.3494 16.245 28.2835 16.4268 28.0015L16.7793 27.4548C16.9335 27.2156 16.8905 26.8976 16.6734 26.7092L14.9496 25.2139C14.4702 24.799 14.4196 24.0709 14.8344 23.5916C15.2493 23.1123 15.9774 23.0616 16.4567 23.4765L19.0628 25.7372C19.8143 26.3911 20.3346 27.2677 20.5448 28.2407L21.3946 32.175C21.4614 32.4841 21.3953 34.4685 20.6399 35.0749C19.8844 35.6813 18.685 35.4972 17.4964 34.7309C16.7424 34.2448 15.788 33.4041 15.1723 32.883L10.4965 28.9553C10.1931 28.7083 9.98271 28.3641 9.9 27.9812L8.24283 20.3094C8.10853 19.6876 8.50234 19.0768 9.1241 18.9425Z" fill="#FBB51B"/>
</svg>
