<svg width="49" height="56" viewBox="0 0 49 56" fill="none" xmlns="http://www.w3.org/2000/svg">
<path d="M24.5 0C6.5 0.00038225 0.836887 14.032 0.5 20.8004C0.5 27.2381 2.77651 32.1906 6.5 37.1431C9.53199 41.1758 20.9377 53.7218 22.7186 55.4672C23.2239 55.9624 24.6388 56.5567 26.2559 54.9719L42.9318 37.1431C48.9958 29.7144 48.9958 24.432 48.9958 20.8004C49.1642 13.7018 43.1006 -0.000394987 24.5 0Z" fill="#DA3939"/>
<ellipse cx="24.5" cy="22.0357" rx="20.5" ry="19.0357" fill="white"/>
<path d="M15.8751 20.9997C17.3709 20.9997 18.5834 19.7871 18.5834 18.2913C18.5834 16.7956 17.3709 15.583 15.8751 15.583C14.3793 15.583 13.1667 16.7956 13.1667 18.2913C13.1667 19.7871 14.3793 20.9997 15.8751 20.9997Z" fill="#EB3C3C"/>
<path d="M20.7501 16.6667C22.2459 16.6667 23.4584 15.4541 23.4584 13.9583C23.4584 12.4626 22.2459 11.25 20.7501 11.25C19.2543 11.25 18.0417 12.4626 18.0417 13.9583C18.0417 15.4541 19.2543 16.6667 20.7501 16.6667Z" fill="#EB3C3C"/>
<path d="M27.2501 16.6667C28.7459 16.6667 29.9584 15.4541 29.9584 13.9583C29.9584 12.4626 28.7459 11.25 27.2501 11.25C25.7543 11.25 24.5417 12.4626 24.5417 13.9583C24.5417 15.4541 25.7543 16.6667 27.2501 16.6667Z" fill="#EB3C3C"/>
<path d="M32.1251 20.9997C33.6209 20.9997 34.8334 19.7871 34.8334 18.2913C34.8334 16.7956 33.6209 15.583 32.1251 15.583C30.6293 15.583 29.4167 16.7956 29.4167 18.2913C29.4167 19.7871 30.6293 20.9997 32.1251 20.9997Z" fill="#EB3C3C"/>
<path d="M29.7849 24.0983C28.8424 22.9933 28.0515 22.0508 27.0982 20.9458C26.5999 20.3608 25.9607 19.7758 25.2024 19.5158C25.0832 19.4725 24.964 19.44 24.8449 19.4183C24.574 19.375 24.2815 19.375 23.9999 19.375C23.7182 19.375 23.4257 19.375 23.144 19.4292C23.0249 19.4508 22.9057 19.4833 22.7865 19.5267C22.0282 19.7867 21.3999 20.3717 20.8907 20.9567C19.9482 22.0617 19.1574 23.0042 18.204 24.1092C16.7849 25.5283 15.0407 27.0992 15.3657 29.2983C15.6799 30.4033 16.4707 31.4975 17.8899 31.8117C18.6807 31.9742 21.2049 31.335 23.8915 31.335H24.0865C26.7732 31.335 29.2974 31.9633 30.0882 31.8117C31.5074 31.4975 32.2982 30.3925 32.6124 29.2983C32.9482 27.0883 31.204 25.5175 29.7849 24.0983Z" fill="#EB3C3C"/>
</svg>
