<svg width="47" height="47" viewBox="0 0 47 47" fill="none" xmlns="http://www.w3.org/2000/svg">
<path d="M22.158 46.8997C21.587 46.8732 20.3105 46.7294 19.5659 46.6079C13.472 45.6131 7.8642 42.1474 4.32167 37.1869C2.15236 34.1492 0.650082 30.0669 0.0896965 25.6868C-0.0313429 24.7407 -0.0295485 22.3892 0.0930595 21.2813C0.244682 19.9113 0.553817 18.279 0.876765 17.1431C2.08479 12.8942 3.96366 9.60728 6.80084 6.77925C9.30489 4.28329 12.379 2.41059 15.877 1.25022C18.5174 0.37435 20.8105 -0.000321968 23.5289 2.07588e-07C26.9136 0.000464884 29.7043 0.614396 32.7193 2.02203C34.6308 2.91447 36.0398 3.87277 37.4041 5.20825C38.7179 6.49436 39.4765 7.59918 39.7859 8.67707C39.8975 9.06613 39.9125 9.19824 39.8943 9.63601C39.8762 10.0711 39.8495 10.1995 39.7079 10.5338C39.2041 11.7233 37.9534 12.2142 36.689 11.7186C36.0442 11.4658 35.4704 11.0154 34.1719 9.74238C32.6054 8.20674 32.1309 7.87258 30.109 6.88102C28.3089 5.99826 26.8054 5.61184 24.6382 5.47497C21.811 5.29642 18.6701 5.94378 15.8204 7.29238C13.8747 8.21313 11.7578 9.74225 10.473 11.155C7.8007 14.0936 6.16712 17.8142 5.8097 21.7761C5.73411 22.6141 5.74637 24.5238 5.83258 25.3381C6.20767 28.8812 7.54477 32.1332 9.76531 34.9031C10.2395 35.4946 11.305 36.5943 11.8653 37.0705C14.7428 39.5161 18.3817 41.0198 22.1082 41.3031C26.6125 41.6455 30.7766 40.1687 33.8901 37.1247C34.7718 36.2628 35.539 35.3305 35.9151 34.664C36.1072 34.3237 36.1005 34.1353 35.8863 33.8546C35.7264 33.6451 35.5003 33.5201 35.0909 33.4147C34.7041 33.3152 34.6426 33.3137 32.6263 33.3548C31.4289 33.3792 30.793 33.3727 30.5327 33.3334C28.761 33.0657 27.5312 32.301 26.7027 30.9519C26.1471 30.0471 25.8689 29.28 25.8141 28.5015C25.7909 28.172 25.802 28.1014 25.9085 27.9037C26.0886 27.5689 26.3284 27.4309 26.9934 27.2794C27.7477 27.1076 28.2192 26.9723 28.4639 26.8576C28.5736 26.8062 28.7223 26.7419 28.7944 26.7147C29.064 26.6131 29.6704 26.1848 29.9608 25.8911C30.5409 25.3042 30.7883 24.6003 30.8554 23.3454C30.9379 21.8013 31.073 21.2547 31.5486 20.5396C31.9567 19.9261 32.5404 19.492 33.1996 19.3117C33.6282 19.1945 34.636 18.9567 35.4179 18.7883C35.788 18.7086 36.7189 18.5069 37.4866 18.3401C39.5113 17.9003 39.9355 17.8318 40.624 17.8335C41.284 17.8351 41.4427 17.8538 42.0229 17.9984C42.7148 18.1709 43.1345 18.367 43.6679 18.7668C44.1281 19.1119 44.4214 19.4029 44.8079 19.8984C45.0634 20.226 45.5871 21.0738 45.5871 21.16C45.5871 21.1707 45.6289 21.2744 45.68 21.3906C45.8435 21.7624 45.9306 21.9936 46.0131 22.2743C46.0574 22.425 46.1251 22.638 46.1636 22.7476C46.202 22.8572 46.3049 23.2831 46.3921 23.6941C46.5438 24.4089 46.5507 24.4911 46.5515 25.5872C46.5532 27.8196 46.2031 29.171 45.427 29.9282C45.0394 30.3062 44.6772 30.5064 44.1913 30.6111C42.9527 30.878 41.7072 30.1725 41.0389 28.8253C40.6909 28.124 40.4316 27.1133 40.3806 26.2597C40.3666 26.0268 40.3425 25.6121 40.3269 25.3381C40.2441 23.8825 39.9162 22.6546 39.4777 22.1575C39.2522 21.9019 39.2219 21.9899 39.2897 22.7043C39.3231 23.0569 39.3641 24.13 39.3808 25.089C39.4218 27.4403 39.5065 27.9344 40.0819 29.1821C40.5132 30.1173 41.1957 30.8528 42.0852 31.3411C42.5537 31.5983 42.54 31.5604 42.4187 32.2627C41.9192 35.1555 40.2378 38.5607 38.1999 40.8065C37.6198 41.4459 36.9141 42.1267 36.4149 42.5287C34.2732 44.2534 31.6756 45.4638 28.3545 46.2846C26.3335 46.7842 24.2077 46.9952 22.158 46.8997ZM34.0478 25.3058C34.2918 25.0918 34.3798 24.9012 34.3874 24.5709C34.3928 24.3365 34.3697 24.2556 34.2453 24.0724C33.7458 23.3365 32.7751 23.6533 32.7621 24.5564C32.7574 24.8757 32.8832 25.1395 33.1149 25.2966C33.3216 25.4369 33.3807 25.4554 33.634 25.4591C33.8293 25.462 33.8993 25.4361 34.0478 25.3058ZM23.0261 22.7655C23.0115 22.7419 22.9513 22.7227 22.8923 22.7227C22.826 22.7227 22.6821 22.6131 22.5162 22.4362C21.6896 21.555 21.3518 21.1841 21.2263 21.0201C21.1493 20.9194 20.8764 20.5844 20.6199 20.2756C20.3634 19.9669 20.1403 19.6794 20.1242 19.6367C20.1081 19.5941 19.9906 19.4247 19.863 19.2603C19.3713 18.6266 19.0199 18.0492 18.5441 17.0933C18.0016 16.0035 17.8974 15.5985 17.8965 14.5775C17.8961 14.0936 17.9196 13.7512 17.963 13.606C18.2299 12.7146 18.4266 12.2794 18.7927 11.7702C18.8889 11.6363 18.9677 11.5063 18.9677 11.4813C18.9677 11.4201 19.4558 10.9497 19.9148 10.5686C20.2895 10.2575 21.2962 9.72027 21.5045 9.72027C21.5591 9.72027 21.6162 9.70019 21.6314 9.67565C21.6568 9.63454 22.0268 9.57137 22.7811 9.47937C23.1645 9.43262 24.2639 9.56781 24.6884 9.7139C25.1179 9.86172 25.7996 10.1903 25.9482 10.3212C26.0158 10.3808 26.1497 10.4803 26.2456 10.5425C26.5632 10.7481 27.0742 11.3015 27.4042 11.7972C28.1156 12.8656 28.368 13.8648 28.2435 15.1204C28.1679 15.8834 27.9459 16.5395 27.4579 17.4417C27.332 17.6744 27.1544 18.0052 27.0634 18.1768C26.9723 18.3484 26.7342 18.7171 26.5343 18.9962C26.3344 19.2752 26.0576 19.666 25.9192 19.8646C25.253 20.8198 23.5443 22.6554 23.2303 22.753C23.1325 22.7834 23.0406 22.789 23.0261 22.7655ZM23.7655 16.8379C24.4754 16.5967 24.9247 16.1819 25.2684 15.4502C25.4106 15.1476 25.421 15.0865 25.422 14.5526C25.4236 13.9804 25.4236 13.9791 25.2155 13.5562C24.8415 12.7937 24.3068 12.3766 23.4545 12.1829C23.131 12.1094 23.0376 12.1065 22.7566 12.1613C21.9823 12.3122 21.4971 12.6156 21.1135 13.1887C20.793 13.6676 20.6871 14.0139 20.6889 14.5775C20.6908 15.142 20.8261 15.5249 21.2083 16.0464C21.7479 16.7827 22.8887 17.1358 23.7655 16.8379Z" fill="black"/>
</svg>
