<svg width="910" height="905" viewBox="0 0 910 905" fill="none" xmlns="http://www.w3.org/2000/svg">
<ellipse cx="455.092" cy="452.147" rx="454.348" ry="452.147" fill="#323A42"/>
<ellipse cx="455.093" cy="452.147" rx="373.074" ry="371.267" fill="#D9D9D9"/>
<path d="M487.045 11.1831C712.001 11.1831 896.056 195.238 896.056 420.195V484.099C896.056 709.055 712 893.11 487.045 893.11H423.14C198.184 893.11 14.1289 709.055 14.1289 484.099V420.195C14.1289 195.238 198.184 11.1831 423.14 11.1831H487.045ZM463.133 232.847L457.442 232.84C410.056 232.84 362.671 234.406 362.671 234.406C293.459 234.406 237.352 290.513 237.352 359.725C237.352 359.725 235.913 400.413 235.793 444.087L235.785 449.797C235.785 498.696 237.352 549.268 237.352 549.268C237.352 618.479 293.459 674.587 362.671 674.587C362.671 674.587 406.975 676.153 452.743 676.153C501.643 676.153 553.781 674.587 553.781 674.587C622.992 674.587 677.532 620.047 677.532 550.835C677.532 550.835 679.099 500.833 679.099 452.931L679.07 441.689C678.858 398.711 677.531 358.157 677.531 358.157C677.531 288.946 622.991 234.406 553.78 234.406C553.78 234.406 508.666 232.963 463.133 232.847ZM457.442 272.737C496.299 272.737 546.12 274.022 546.12 274.022C602.874 274.022 637.916 309.063 637.916 365.817C637.916 365.817 639.201 414.787 639.201 453.21C639.201 492.49 637.916 543.173 637.916 543.173C637.916 599.927 602.874 634.968 546.12 634.968C546.12 634.968 502.061 636.048 463.833 636.228L453.589 636.253C416.059 636.253 370.33 634.968 370.33 634.968C313.577 634.968 276.969 598.358 276.969 541.607C276.969 541.607 275.684 490.739 275.684 450.642C275.684 413.112 276.969 365.817 276.969 365.817C276.969 309.063 313.578 274.022 370.33 274.022C370.33 274.022 418.585 272.737 457.442 272.737ZM457.441 340.95C394.732 340.95 343.896 391.786 343.896 454.495C343.896 517.204 394.732 568.039 457.441 568.039C520.15 568.039 570.986 517.204 570.986 454.495C570.986 391.786 520.15 340.95 457.441 340.95ZM457.441 380.609C498.247 380.609 531.327 413.689 531.327 454.495C531.327 495.301 498.247 528.381 457.441 528.381C416.636 528.381 383.555 495.301 383.555 454.495C383.555 413.689 416.635 380.609 457.441 380.609ZM576.419 309.441C561.267 309.441 548.983 321.785 548.983 337.012C548.983 352.239 561.267 364.583 576.419 364.583C591.571 364.583 603.854 352.239 603.854 337.012C603.854 321.784 591.571 309.441 576.419 309.441Z" fill="#323A42"/>
</svg>
