<svg width="908" height="903" viewBox="0 0 908 903" fill="none" xmlns="http://www.w3.org/2000/svg">
<ellipse cx="453.79" cy="451.475" rx="453.673" ry="451.475" fill="#323A42"/>
<path d="M752.766 469.485C752.766 648.958 604.839 757.677 439.719 757.677C220.046 768.393 132.489 664.139 132.489 484.666C132.489 305.193 288.67 144.521 453.79 144.521C618.909 144.521 752.766 290.012 752.766 469.485Z" fill="#D9D9D9"/>
<path d="M798.786 260.094C798.398 245.21 797.246 230.356 795.336 215.59C792.76 202.657 788.467 190.126 782.571 178.33C776.404 165.534 768.123 153.871 758.076 143.831C747.936 133.902 736.293 125.635 723.576 119.336C711.765 113.555 699.234 109.378 686.317 106.916C671.691 104.725 656.942 103.458 642.157 103.121H265.767C250.883 103.509 236.029 104.66 221.263 106.571C208.33 109.147 195.799 113.44 184.003 119.336C171.207 125.502 159.544 133.783 149.503 143.831C139.575 153.97 131.308 165.613 125.009 178.33C119.228 190.142 115.051 202.672 112.589 215.59C110.398 230.215 109.131 244.964 108.794 259.749C108.794 266.304 108.794 275.619 108.794 278.379V617.855C108.794 621.65 108.794 629.93 108.794 636.14C109.182 651.024 110.333 665.878 112.244 680.644C114.82 693.577 119.113 706.108 125.009 717.904C131.175 730.699 139.456 742.363 149.503 752.403C159.643 762.332 171.286 770.599 184.003 776.898C195.814 782.679 208.345 786.855 221.263 789.318C235.888 791.508 250.637 792.776 265.422 793.113H641.812C656.697 792.725 671.551 791.574 686.317 789.663C699.25 787.087 711.781 782.794 723.576 776.898C736.372 770.732 748.036 762.45 758.076 752.403C768.005 742.263 776.271 730.62 782.571 717.904C788.351 706.092 792.528 693.562 794.991 680.644C797.181 666.019 798.449 651.269 798.786 636.485C798.786 629.93 798.786 621.65 798.786 617.855V278.379C798.786 275.619 798.786 266.304 798.786 260.094ZM461.725 689.614C420.293 689.41 379.586 678.728 343.391 658.564L212.293 693.064L246.792 564.725C224.544 527.344 212.637 484.717 212.293 441.217C212.43 392.328 227.031 344.574 254.257 303.968C281.482 263.361 320.115 231.719 365.289 213.027C410.463 194.335 460.158 189.428 508.116 198.924C556.073 208.421 600.148 231.896 634.789 266.394C669.431 300.892 693.089 344.868 702.785 392.786C712.481 440.704 707.781 490.419 689.277 535.67C670.772 580.922 639.291 619.686 598.798 647.08C558.306 674.474 510.612 689.273 461.725 689.614ZM461.38 232.84C424.804 233.258 389.336 247.156 357.935 265.916C326.533 284.675 300.663 311.42 282.958 343.429C265.254 375.437 256.347 411.565 257.145 448.135C257.943 484.705 268.418 520.41 287.502 551.616L292.332 559.551L271.632 635.105L350.291 613.715L357.881 618.2C389.261 636.683 424.962 646.561 461.38 646.834C516.279 646.834 568.929 625.026 607.749 586.206C646.569 547.387 668.377 494.736 668.377 439.837C668.377 384.938 646.569 332.287 607.749 293.468C568.929 254.648 516.279 232.84 461.38 232.84ZM582.473 530.571C577.955 538.108 571.904 544.612 564.713 549.664C557.523 554.715 549.352 558.201 540.729 559.896C527.844 562.251 514.58 561.421 502.089 557.481C490.337 553.806 478.816 549.428 467.59 544.371C424.939 522.969 388.566 490.876 362.021 451.222C347.596 432.85 338.844 410.669 336.836 387.398C336.631 377.73 338.459 368.128 342.204 359.213C345.948 350.298 351.524 342.27 358.571 335.648C360.646 333.295 363.193 331.403 366.045 330.096C368.898 328.789 371.993 328.094 375.131 328.058H384.791C388.586 328.058 393.76 328.058 398.59 338.753C403.42 349.448 416.185 381.533 417.91 384.638C418.758 386.293 419.2 388.126 419.2 389.985C419.2 391.845 418.758 393.678 417.91 395.333C416.385 399.081 414.29 402.573 411.7 405.682C408.595 409.477 405.145 413.962 402.385 416.722C399.625 419.482 396.175 422.932 399.625 429.142C409.012 444.984 420.631 459.392 434.125 471.922C448.819 484.906 465.62 495.289 483.804 502.626C490.014 505.731 493.809 505.386 497.259 502.626C500.709 499.866 512.784 484.686 516.924 478.477C521.064 472.267 525.204 473.302 530.724 475.372C536.244 477.442 566.948 492.276 573.158 495.381C579.368 498.486 583.163 499.866 584.888 502.626C586.384 511.656 585.553 520.917 582.473 529.536V530.571Z" fill="#323A42"/>
</svg>
