<svg width="910" height="904" viewBox="0 0 910 904" fill="none" xmlns="http://www.w3.org/2000/svg">
<ellipse cx="454.721" cy="452.117" rx="454.348" ry="451.475" fill="#323A42"/>
<path d="M788.069 444.606C788.069 731.125 624.25 770.443 440.148 770.443C256.045 770.443 152.179 713.971 137.605 444.606C210.474 151.312 270.619 118.769 454.721 118.769C638.824 118.769 788.069 202.072 788.069 444.606Z" fill="#D9D9D9"/>
<path fill-rule="evenodd" clip-rule="evenodd" d="M242.591 118.769C210.442 118.769 179.61 131.54 156.877 154.272C134.145 177.005 121.374 207.837 121.374 239.986V664.248C121.374 696.395 134.145 727.226 156.877 749.961C179.61 772.692 210.442 785.465 242.591 785.465H666.851C699.001 785.465 729.832 772.692 752.567 749.961C775.298 727.226 788.068 696.395 788.068 664.248V239.986C788.068 207.837 775.298 177.005 752.567 154.272C729.832 131.54 699.001 118.769 666.851 118.769H242.591ZM232.469 224.834C229.152 226.067 226.168 228.057 223.756 230.647C221.344 233.236 219.57 236.353 218.575 239.75C217.58 243.146 217.392 246.728 218.026 250.21C218.66 253.691 220.098 256.977 222.227 259.805L392.355 485.573L213.105 677.854L211.772 679.4H273.804L420.173 522.454L532.663 671.794C535.275 675.248 538.818 677.888 542.876 679.4H676.881C680.194 678.161 683.173 676.163 685.579 673.572C687.985 670.978 689.752 667.86 690.74 664.466C691.728 661.069 691.912 657.49 691.273 654.011C690.637 650.532 689.194 647.25 687.064 644.429L516.935 418.661L697.67 224.834H635.546L489.176 381.81L376.627 232.471C374.021 229.003 370.478 226.353 366.415 224.834H232.469ZM562.18 635.398L285.957 268.836H347.141L623.334 635.368L562.18 635.398Z" fill="#323A42"/>
</svg>
